<mxfile host="app.diagrams.net" modified="2023-05-22T08:41:31.700Z" agent="Mozilla/5.0 (Windows NT 10.0; Win64; x64) AppleWebKit/537.36 (KHTML, like Gecko) Chrome/113.0.0.0 Safari/537.36" version="21.2.9" etag="0E-fdg-AJhRHGKQ5vIpn" type="github">
  <diagram name="페이지-1" id="UJ65Z9liY_AhvTq28M4p">
    <mxGraphModel>
      <root>
        <mxCell id="0" />
        <mxCell id="1" parent="0" />
      </root>
    </mxGraphModel>
  </diagram>
</mxfile>
